<?xml version="1.0" encoding="utf-8"?>
<!-- Generator: Adobe Illustrator 17.0.0, SVG Export Plug-In . SVG Version: 6.00 Build 0)  -->
<!DOCTYPE svg PUBLIC "-//W3C//DTD SVG 1.1//EN" "http://www.w3.org/Graphics/SVG/1.1/DTD/svg11.dtd">
<svg version="1.1" id="Layer_1" xmlns="http://www.w3.org/2000/svg" xmlns:xlink="http://www.w3.org/1999/xlink" x="0px" y="0px"
	 width="198px" height="197.995px" viewBox="0 0 198 197.995" enable-background="new 0 0 198 197.995" xml:space="preserve">
<path fill-rule="evenodd" clip-rule="evenodd" d="M91.073,0C40.776,0,0,39.042,0,87.205c0,48.161,40.776,87.204,91.073,87.204
	c50.298,0,91.073-39.043,91.073-87.204C182.145,39.042,141.371,0,91.073,0z M91.073,158.167c-41.113,0-74.443-31.858-74.443-71.156
	c0-39.299,33.33-71.156,74.443-71.156s74.443,31.857,74.443,71.156C165.516,126.309,132.186,158.167,91.073,158.167z"/>
<path fill-rule="evenodd" clip-rule="evenodd" d="M137.077,152.302l15.231-15.23L198,182.763l-15.893,15.232L137.077,152.302z"/>
</svg>
