<?xml version="1.0" encoding="utf-8"?>
<!-- Generator: Adobe Illustrator 17.0.0, SVG Export Plug-In . SVG Version: 6.00 Build 0)  -->
<!DOCTYPE svg PUBLIC "-//W3C//DTD SVG 1.1//EN" "http://www.w3.org/Graphics/SVG/1.1/DTD/svg11.dtd">
<svg version="1.1" id="Layer_1" xmlns="http://www.w3.org/2000/svg" xmlns:xlink="http://www.w3.org/1999/xlink" x="0px" y="0px"
	 width="278px" height="278px" viewBox="0 0 278 278" enable-background="new 0 0 278 278" xml:space="preserve">
<rect fill="#1B181A" width="278" height="278"/>
<g>
	<g>
		<defs>
			<circle id="SVGID_1_" cx="139.096" cy="113.227" r="80.75"/>
		</defs>
		<clipPath id="SVGID_2_">
			<use xlink:href="#SVGID_1_"  overflow="visible"/>
		</clipPath>
		<g clip-path="url(#SVGID_2_)">
			<path fill="#797979" d="M159.86,194.977h-41.528c-17.09,0-30.993-13.903-30.993-30.993v-20.764
				c0-17.089,13.903-30.993,30.993-30.993h41.528c17.089,0,30.992,13.903,30.992,30.993v20.764
				C190.853,181.073,176.949,194.977,159.86,194.977z M118.332,114.227c-15.987,0-28.993,13.006-28.993,28.993v20.764
				c0,15.987,13.006,28.993,28.993,28.993h41.528c15.986,0,28.992-13.006,28.992-28.993v-20.764
				c0-15.987-13.006-28.993-28.992-28.993H118.332z"/>
		</g>
	</g>
</g>
<g>
	<path fill="#797979" d="M139.096,34.784c43.253,0,78.443,35.19,78.443,78.443s-35.19,78.443-78.443,78.443
		s-78.443-35.19-78.443-78.443S95.843,34.784,139.096,34.784 M139.096,32.477c-44.597,0-80.75,36.153-80.75,80.75
		s36.153,80.75,80.75,80.75s80.75-36.153,80.75-80.75S183.693,32.477,139.096,32.477L139.096,32.477z"/>
</g>
<g>
	<path fill="#797979" d="M139.096,107.305c-14.545,0-26.378-11.833-26.378-26.378s11.833-26.378,26.378-26.378
		s26.379,11.833,26.379,26.378S153.641,107.305,139.096,107.305z M139.096,56.548c-13.442,0-24.378,10.936-24.378,24.378
		s10.936,24.378,24.378,24.378s24.379-10.936,24.379-24.378S152.538,56.548,139.096,56.548z"/>
</g>
</svg>
